<svg id="visual" viewBox="0 0 1920 920" width="1920" height="920" xmlns="http://www.w3.org/2000/svg" xmlns:xlink="http://www.w3.org/1999/xlink" version="1.1"><rect x="0" y="0" width="1920" height="920" fill="#FFFFFF"></rect><path d="M0 585L45.7 596.8C91.3 608.7 182.7 632.3 274.2 629.7C365.7 627 457.3 598 548.8 598C640.3 598 731.7 627 823 643.8C914.3 660.7 1005.7 665.3 1097 655.2C1188.3 645 1279.7 620 1371.2 618.8C1462.7 617.7 1554.3 640.3 1645.8 634.7C1737.3 629 1828.7 595 1874.3 578L1920 561L1920 921L1874.3 921C1828.7 921 1737.3 921 1645.8 921C1554.3 921 1462.7 921 1371.2 921C1279.7 921 1188.3 921 1097 921C1005.7 921 914.3 921 823 921C731.7 921 640.3 921 548.8 921C457.3 921 365.7 921 274.2 921C182.7 921 91.3 921 45.7 921L0 921Z" fill="#f7caca"></path><path d="M0 642L45.7 642.5C91.3 643 182.7 644 274.2 642.2C365.7 640.3 457.3 635.7 548.8 637.7C640.3 639.7 731.7 648.3 823 644.3C914.3 640.3 1005.7 623.7 1097 623.8C1188.3 624 1279.7 641 1371.2 653.5C1462.7 666 1554.3 674 1645.8 679C1737.3 684 1828.7 686 1874.3 687L1920 688L1920 921L1874.3 921C1828.7 921 1737.3 921 1645.8 921C1554.3 921 1462.7 921 1371.2 921C1279.7 921 1188.3 921 1097 921C1005.7 921 914.3 921 823 921C731.7 921 640.3 921 548.8 921C457.3 921 365.7 921 274.2 921C182.7 921 91.3 921 45.7 921L0 921Z" fill="#fdb9b4"></path><path d="M0 641L45.7 656.7C91.3 672.3 182.7 703.7 274.2 718.2C365.7 732.7 457.3 730.3 548.8 729C640.3 727.7 731.7 727.3 823 718.2C914.3 709 1005.7 691 1097 678.2C1188.3 665.3 1279.7 657.7 1371.2 658.5C1462.7 659.3 1554.3 668.7 1645.8 683.3C1737.3 698 1828.7 718 1874.3 728L1920 738L1920 921L1874.3 921C1828.7 921 1737.3 921 1645.8 921C1554.3 921 1462.7 921 1371.2 921C1279.7 921 1188.3 921 1097 921C1005.7 921 914.3 921 823 921C731.7 921 640.3 921 548.8 921C457.3 921 365.7 921 274.2 921C182.7 921 91.3 921 45.7 921L0 921Z" fill="#ffa99b"></path><path d="M0 729L45.7 737.8C91.3 746.7 182.7 764.3 274.2 770.3C365.7 776.3 457.3 770.7 548.8 755.7C640.3 740.7 731.7 716.3 823 710C914.3 703.7 1005.7 715.3 1097 713.8C1188.3 712.3 1279.7 697.7 1371.2 690.8C1462.7 684 1554.3 685 1645.8 694.2C1737.3 703.3 1828.7 720.7 1874.3 729.3L1920 738L1920 921L1874.3 921C1828.7 921 1737.3 921 1645.8 921C1554.3 921 1462.7 921 1371.2 921C1279.7 921 1188.3 921 1097 921C1005.7 921 914.3 921 823 921C731.7 921 640.3 921 548.8 921C457.3 921 365.7 921 274.2 921C182.7 921 91.3 921 45.7 921L0 921Z" fill="#ff9a80"></path><path d="M0 766L45.7 768.5C91.3 771 182.7 776 274.2 783.2C365.7 790.3 457.3 799.7 548.8 801.2C640.3 802.7 731.7 796.3 823 794.8C914.3 793.3 1005.7 796.7 1097 791.7C1188.3 786.7 1279.7 773.3 1371.2 772.3C1462.7 771.3 1554.3 782.7 1645.8 789.2C1737.3 795.7 1828.7 797.3 1874.3 798.2L1920 799L1920 921L1874.3 921C1828.7 921 1737.3 921 1645.8 921C1554.3 921 1462.7 921 1371.2 921C1279.7 921 1188.3 921 1097 921C1005.7 921 914.3 921 823 921C731.7 921 640.3 921 548.8 921C457.3 921 365.7 921 274.2 921C182.7 921 91.3 921 45.7 921L0 921Z" fill="#ff8c62"></path><path d="M0 850L45.7 842.8C91.3 835.7 182.7 821.3 274.2 817.3C365.7 813.3 457.3 819.7 548.8 826.8C640.3 834 731.7 842 823 844.3C914.3 846.7 1005.7 843.3 1097 834.7C1188.3 826 1279.7 812 1371.2 813.8C1462.7 815.7 1554.3 833.3 1645.8 836.7C1737.3 840 1828.7 829 1874.3 823.5L1920 818L1920 921L1874.3 921C1828.7 921 1737.3 921 1645.8 921C1554.3 921 1462.7 921 1371.2 921C1279.7 921 1188.3 921 1097 921C1005.7 921 914.3 921 823 921C731.7 921 640.3 921 548.8 921C457.3 921 365.7 921 274.2 921C182.7 921 91.3 921 45.7 921L0 921Z" fill="#fe8140"></path><path d="M0 850L45.7 848.2C91.3 846.3 182.7 842.7 274.2 840.7C365.7 838.7 457.3 838.3 548.8 846C640.3 853.7 731.7 869.3 823 876.8C914.3 884.3 1005.7 883.7 1097 882.3C1188.3 881 1279.7 879 1371.2 872.5C1462.7 866 1554.3 855 1645.8 856.2C1737.3 857.3 1828.7 870.7 1874.3 877.3L1920 884L1920 921L1874.3 921C1828.7 921 1737.3 921 1645.8 921C1554.3 921 1462.7 921 1371.2 921C1279.7 921 1188.3 921 1097 921C1005.7 921 914.3 921 823 921C731.7 921 640.3 921 548.8 921C457.3 921 365.7 921 274.2 921C182.7 921 91.3 921 45.7 921L0 921Z" fill="#f7770f"></path></svg>