<svg id="visual" viewBox="0 0 1920 920" width="1920" height="920" xmlns="http://www.w3.org/2000/svg" xmlns:xlink="http://www.w3.org/1999/xlink" version="1.1"><rect x="0" y="0" width="1920" height="920" fill="#001220"></rect><path d="M0 618L45.7 619.5C91.3 621 182.7 624 274.2 617C365.7 610 457.3 593 548.8 582.2C640.3 571.3 731.7 566.7 823 572C914.3 577.3 1005.7 592.7 1097 613C1188.3 633.3 1279.7 658.7 1371.2 650.2C1462.7 641.7 1554.3 599.3 1645.8 591C1737.3 582.7 1828.7 608.3 1874.3 621.2L1920 634L1920 921L1874.3 921C1828.7 921 1737.3 921 1645.8 921C1554.3 921 1462.7 921 1371.2 921C1279.7 921 1188.3 921 1097 921C1005.7 921 914.3 921 823 921C731.7 921 640.3 921 548.8 921C457.3 921 365.7 921 274.2 921C182.7 921 91.3 921 45.7 921L0 921Z" fill="#fa7268"></path><path d="M0 689L45.7 682C91.3 675 182.7 661 274.2 665C365.7 669 457.3 691 548.8 701.5C640.3 712 731.7 711 823 701.3C914.3 691.7 1005.7 673.3 1097 671.7C1188.3 670 1279.7 685 1371.2 698C1462.7 711 1554.3 722 1645.8 721.8C1737.3 721.7 1828.7 710.3 1874.3 704.7L1920 699L1920 921L1874.3 921C1828.7 921 1737.3 921 1645.8 921C1554.3 921 1462.7 921 1371.2 921C1279.7 921 1188.3 921 1097 921C1005.7 921 914.3 921 823 921C731.7 921 640.3 921 548.8 921C457.3 921 365.7 921 274.2 921C182.7 921 91.3 921 45.7 921L0 921Z" fill="#ef5f67"></path><path d="M0 781L45.7 773C91.3 765 182.7 749 274.2 732C365.7 715 457.3 697 548.8 699.3C640.3 701.7 731.7 724.3 823 732.8C914.3 741.3 1005.7 735.7 1097 732.2C1188.3 728.7 1279.7 727.3 1371.2 729C1462.7 730.7 1554.3 735.3 1645.8 738C1737.3 740.7 1828.7 741.3 1874.3 741.7L1920 742L1920 921L1874.3 921C1828.7 921 1737.3 921 1645.8 921C1554.3 921 1462.7 921 1371.2 921C1279.7 921 1188.3 921 1097 921C1005.7 921 914.3 921 823 921C731.7 921 640.3 921 548.8 921C457.3 921 365.7 921 274.2 921C182.7 921 91.3 921 45.7 921L0 921Z" fill="#e34c67"></path><path d="M0 831L45.7 818.8C91.3 806.7 182.7 782.3 274.2 770.3C365.7 758.3 457.3 758.7 548.8 757.7C640.3 756.7 731.7 754.3 823 759.3C914.3 764.3 1005.7 776.7 1097 783C1188.3 789.3 1279.7 789.7 1371.2 784.3C1462.7 779 1554.3 768 1645.8 774.8C1737.3 781.7 1828.7 806.3 1874.3 818.7L1920 831L1920 921L1874.3 921C1828.7 921 1737.3 921 1645.8 921C1554.3 921 1462.7 921 1371.2 921C1279.7 921 1188.3 921 1097 921C1005.7 921 914.3 921 823 921C731.7 921 640.3 921 548.8 921C457.3 921 365.7 921 274.2 921C182.7 921 91.3 921 45.7 921L0 921Z" fill="#d53867"></path><path d="M0 844L45.7 839C91.3 834 182.7 824 274.2 829.8C365.7 835.7 457.3 857.3 548.8 860.8C640.3 864.3 731.7 849.7 823 844.8C914.3 840 1005.7 845 1097 841.5C1188.3 838 1279.7 826 1371.2 830.5C1462.7 835 1554.3 856 1645.8 861.5C1737.3 867 1828.7 857 1874.3 852L1920 847L1920 921L1874.3 921C1828.7 921 1737.3 921 1645.8 921C1554.3 921 1462.7 921 1371.2 921C1279.7 921 1188.3 921 1097 921C1005.7 921 914.3 921 823 921C731.7 921 640.3 921 548.8 921C457.3 921 365.7 921 274.2 921C182.7 921 91.3 921 45.7 921L0 921Z" fill="#c62368"></path></svg>