<svg id="visual" viewBox="0 0 1920 920" width="1920" height="920" xmlns="http://www.w3.org/2000/svg" xmlns:xlink="http://www.w3.org/1999/xlink" version="1.1"><rect x="0" y="0" width="1920" height="920" fill="#001220"></rect><path d="M0 652L45.7 645.8C91.3 639.7 182.7 627.3 274.2 616.2C365.7 605 457.3 595 548.8 598.2C640.3 601.3 731.7 617.7 823 625.2C914.3 632.7 1005.7 631.3 1097 624C1188.3 616.7 1279.7 603.3 1371.2 604.8C1462.7 606.3 1554.3 622.7 1645.8 628.2C1737.3 633.7 1828.7 628.3 1874.3 625.7L1920 623L1920 921L1874.3 921C1828.7 921 1737.3 921 1645.8 921C1554.3 921 1462.7 921 1371.2 921C1279.7 921 1188.3 921 1097 921C1005.7 921 914.3 921 823 921C731.7 921 640.3 921 548.8 921C457.3 921 365.7 921 274.2 921C182.7 921 91.3 921 45.7 921L0 921Z" fill="#6600ff"></path><path d="M0 606L45.7 618.7C91.3 631.3 182.7 656.7 274.2 660.3C365.7 664 457.3 646 548.8 652C640.3 658 731.7 688 823 695.8C914.3 703.7 1005.7 689.3 1097 678.3C1188.3 667.3 1279.7 659.7 1371.2 661.2C1462.7 662.7 1554.3 673.3 1645.8 665.5C1737.3 657.7 1828.7 631.3 1874.3 618.2L1920 605L1920 921L1874.3 921C1828.7 921 1737.3 921 1645.8 921C1554.3 921 1462.7 921 1371.2 921C1279.7 921 1188.3 921 1097 921C1005.7 921 914.3 921 823 921C731.7 921 640.3 921 548.8 921C457.3 921 365.7 921 274.2 921C182.7 921 91.3 921 45.7 921L0 921Z" fill="#9c58ff"></path><path d="M0 783L45.7 778.2C91.3 773.3 182.7 763.7 274.2 762.2C365.7 760.7 457.3 767.3 548.8 767.2C640.3 767 731.7 760 823 745.8C914.3 731.7 1005.7 710.3 1097 698.5C1188.3 686.7 1279.7 684.3 1371.2 699.5C1462.7 714.7 1554.3 747.3 1645.8 747.8C1737.3 748.3 1828.7 716.7 1874.3 700.8L1920 685L1920 921L1874.3 921C1828.7 921 1737.3 921 1645.8 921C1554.3 921 1462.7 921 1371.2 921C1279.7 921 1188.3 921 1097 921C1005.7 921 914.3 921 823 921C731.7 921 640.3 921 548.8 921C457.3 921 365.7 921 274.2 921C182.7 921 91.3 921 45.7 921L0 921Z" fill="#c391ff"></path><path d="M0 763L45.7 763.7C91.3 764.3 182.7 765.7 274.2 771.7C365.7 777.7 457.3 788.3 548.8 799C640.3 809.7 731.7 820.3 823 816.2C914.3 812 1005.7 793 1097 778.2C1188.3 763.3 1279.7 752.7 1371.2 756.3C1462.7 760 1554.3 778 1645.8 784.5C1737.3 791 1828.7 786 1874.3 783.5L1920 781L1920 921L1874.3 921C1828.7 921 1737.3 921 1645.8 921C1554.3 921 1462.7 921 1371.2 921C1279.7 921 1188.3 921 1097 921C1005.7 921 914.3 921 823 921C731.7 921 640.3 921 548.8 921C457.3 921 365.7 921 274.2 921C182.7 921 91.3 921 45.7 921L0 921Z" fill="#e3c8ff"></path><path d="M0 820L45.7 825.2C91.3 830.3 182.7 840.7 274.2 847.8C365.7 855 457.3 859 548.8 853.8C640.3 848.7 731.7 834.3 823 830.2C914.3 826 1005.7 832 1097 835.2C1188.3 838.3 1279.7 838.7 1371.2 844.2C1462.7 849.7 1554.3 860.3 1645.8 862.5C1737.3 864.7 1828.7 858.3 1874.3 855.2L1920 852L1920 921L1874.3 921C1828.7 921 1737.3 921 1645.8 921C1554.3 921 1462.7 921 1371.2 921C1279.7 921 1188.3 921 1097 921C1005.7 921 914.3 921 823 921C731.7 921 640.3 921 548.8 921C457.3 921 365.7 921 274.2 921C182.7 921 91.3 921 45.7 921L0 921Z" fill="#ffffff"></path></svg>